<svg xmlns="http://www.w3.org/2000/svg" viewBox="0 0 64 64">
    <path fill="#455152" d="M32 6.67 14.67 40l2.66 2.67 1.34 2.66H20l-1.99-3.97L32 12l14.67 30.67L49.33 40 32 6.67Z"/>
    <path fill="#455152" d="M45.33 45.33H44l6.66-10.66L52 36l-6.67 9.33Z"/>
    <path fill="#64b5f6" d="M38.67 0v2.67L32 12l-6.67-9.33V0h13.34Z"/>
    <path fill="#039be5" d="M25.33 0h1.34L32 12l-6.67-9.33V0Z"/>
    <path fill="#455152" d="M32 18.67 30.67 24 32 25.33v-6.66Z"/>
    <path fill="#798a8c" d="m56 33.33-6.67-12-2.66 1.34 1.1-4-10.44-16-3.76 7.13L48 40l-2.67 5.33h4l6.67-12ZM20.17 32 16 40l2.67 5.33h-4L8 33.33l7.3-13.23 2.03 1.23-.17-4.08 4.25-6.52 3.92-.06-1.28-4 2.62-4 3.76 7.13L23 24h9v-5.34L38.67 32h-18.5Z"/>
    <path fill="#c62828" d="M14.67 45.33H2.44l2.12-3.81L5.4 40l1.32-2.39-.05-4.28H8l6.67 12Z"/>
    <path fill="#455152" d="m38.67 32-1.34 2.67H20L21.46 32h17.21Z"/>
    <path fill="#e53935" d="M13.33 45.33H0l2.12-3.81.84-1.52 1.32-2.39.63-1.12 1.76-3.16 2.24 4.03.46.84 1.52 2.73v.02l2.44 4.38Z"/>
    <path fill="#689f38" d="M49.33 45.33h12.23l-2.12-3.81L58.6 40l-1.32-2.39.05-4.28H56l-6.67 12Z"/>
    <path fill="#aeea00" d="M50.67 45.33H64l-2.12-3.81-.84-1.52-1.32-2.39-.63-1.12-1.76-3.16-2.24 4.03-.46.84-1.52 2.73v.02l-2.44 4.38Z"/>
    <path fill="#fff" stroke="#000" stroke-width=".3" d="m52.22 48.88-.01 3.61 6.84 9.49h2.94l-5.06-7.12 4.67-5.98h-2.81l-4 4.66v-4.66h-2.58Zm-22.7 13.1v-7.61l4.1-.01c2.04-.03 2.19-3 .02-3h-4.12V48.9l5.25-.02c3.9.03 4.11 7.56.29 7.62l3.47 5.48H35.3l-3.3-5.5v5.5l-2.48-.01ZM2 61.97l5.53-13.09h2.84l5.2 13.1h-2.63L8.82 52.6l-4.16 9.38H2.01v-.01Z"/>
</svg>
