<svg xmlns="http://www.w3.org/2000/svg" fill-rule="evenodd" viewBox="0 0 100 100">
    <path fill="#e07f09" d="M78.72 0H99.4L56.76 100h-20.7L78.73 0ZM100 2.59v12.4L63.74 100h-5.3L100 2.59ZM100 16.91v76.76L97.3 100H64.56L100 16.91Z"/>
    <path fill="#d9d9d9" d="M79.03 0 36.3 100H0V0h79.03Z"/>
    <path fill="#c8500d" fill-opacity=".6" d="M78.72 0h.25L36.32 100h-.25L78.72 0Zm.86 0h.25L37.18 100h-.25L79.58 0Zm.86 0h.25L38.04 100h-.25L80.44 0Zm.86 0h.25L38.9 100h-.25L81.3 0Zm.86 0h.25L39.76 100h-.26L82.16 0Zm.86 0h.25L40.62 100h-.26L83.02 0Zm.86 0h.25L41.47 100h-.25L83.88 0Z"/>
    <path fill="#e07f09" fill-opacity=".9" d="M89.17 0h3.64L50.16 100H46.5L89.17 0Zm5.72 0H100v100H52.23L94.89 0Z"/>
    <path fill="#bebebe" d="M0 62.26 26.55 0h.26L0 62.86v-.6ZM27.4 0h.27L0 64.87v-.6L27.4 0Zm.87 0h.25L0 66.87v-.58L28.27 0Zm.86 0h.25L0 68.89v-.6L29.13 0Zm.86 0h.25L0 70.9v-.6L29.99 0Zm.86 0h.25L0 72.92v-.6L30.85 0Zm.86 0h.25L0 74.93v-.59L31.7 0Zm.86 0h.25L0 76.94v-.58L32.57 0Zm.85 0h.26L0 78.96v-.6L33.42 0Zm.86 0h.27L0 80.99v-.6L34.28 0Zm.86 0h.25L0 82.98v-.58L35.14 0ZM36 0h.25L0 85v-.58L36 0Zm.86 0h.25L0 87.02v-.6L36.86 0Zm.86 0h.25L0 89.03v-.6L37.72 0Zm.86 0h.25L0 91.02v-.59L38.58 0Zm.86 0h.25L0 93.05v-.58L39.44 0Zm.86 0h.25L0 95.07v-.59L40.3 0Zm.85 0h.26L0 97.1v-.6L41.15 0ZM42 0h.26L0 99.1v-.6L42 0Zm.86 0h.25L.47 100H.22L42.87 0Zm.86 0h.25L1.33 100h-.25L43.73 0Zm.86 0h.25L2.19 100h-.25L44.59 0Zm.86 0h.25L3.05 100H2.8L45.45 0Zm.86 0h.25L3.9 100h-.25L46.3 0ZM24.1 0 1.3 53.5h-.26L23.86 0h.26Zm-.85 0L.44 53.5H.19L22.99 0h.27Zm-.86 0L0 52.52v-.6L22.14 0h.26Zm-.86 0L0 50.5v-.59L21.29 0h.25Zm-.86 0L0 48.48v-.58L20.43 0h.25Zm-.86 0L0 46.47v-.59L19.57 0h.25Zm-.86 0L0 44.45v-.59L18.7 0h.26Zm-.86 0L0 42.44v-.59L17.86 0h.24Zm-.85 0L0 40.44v-.61L16.99 0h.26Zm-.86 0L0 38.42v-.6L16.13 0h.26Zm-.86 0L0 36.4v-.6L15.26 0h.27Zm-.86 0L0 34.4v-.6L14.4 0h.27Zm-.86 0L0 32.38v-.6L13.56 0h.25Zm-.86 0L0 30.36v-.59L12.7 0h.25Zm-.86 0L0 28.35v-.6L11.84 0h.25Zm-.86 0L0 26.33v-.6L10.98 0h.25Zm-.85 0L0 24.33v-.6L10.12 0h.26Zm-.86 0L0 22.31v-.6L9.26 0h.26Zm-.86 0L0 20.3v-.6L8.4 0h.26ZM7.8 0 0 18.3v-.62L7.54 0h.26Zm-.86 0L0 16.28v-.61L6.68 0h.26Zm-.86 0L0 14.26v-.6L5.83 0h.25Zm-.86 0L0 12.24v-.6L4.97 0h.25Zm-.86 0L0 10.23v-.6L4.1 0h.26ZM3.5 0 0 8.21v-.58L3.25 0h.25Zm-.85 0L0 6.2v-.6L2.39 0h.26Zm-.86 0L0 4.19v-.6L1.53 0h.26ZM.93 0 0 2.18v-.63L.66 0h.27ZM.07 0 0 .17V0h.07Z"/>
    <path fill="#bebebe" d="M0 84.42 36 0h.25L0 85v-.58ZM36.86 0h.25L0 87.02v-.6L36.86 0Zm10.3 0h.26L4.77 100h-.25L47.17 0Zm.86 0h.26L5.63 100h-.26L48.02 0Zm.86 0h.27L6.49 100h-.26L48.88 0Zm.86 0H50L7.35 100h-.26L49.74 0Zm.86 0h.25L8.2 100h-.25L50.6 0Zm.86 0h.25L9.06 100h-.25L51.46 0Zm.86 0h.25L9.92 100h-.25L52.32 0Zm.85 0h.26L10.78 100h-.26L53.18 0Zm.87 0h.25L11.64 100h-.25L54.04 0Zm.86 0h.25L12.5 100h-.25L54.9 0Zm.85 0H56L13.36 100h-.25L55.75 0Zm.86 0h.26L14.22 100h-.26L56.61 0Zm.86 0h.25L15.07 100h-.25L57.47 0Zm.86 0h.25L15.93 100h-.25L58.33 0Zm.86 0h.25L16.79 100h-.25L59.19 0Zm.86 0h.25L17.65 100h-.25L60.05 0Zm.86 0h.25L18.5 100h-.25L60.9 0Zm.86 0h.25L19.37 100h-.25L61.77 0Zm.86 0h.25L20.23 100h-.25L62.63 0Zm.85 0h.27L21.09 100h-.26L63.48 0Zm.86 0h.25L21.94 100h-.25L64.34 0Zm.86 0h.25L22.8 100h-.25L65.2 0Zm.86 0h.25L23.66 100h-.25L66.06 0Zm.86 0h.25L24.52 100h-.25L66.92 0Z"/>
    <path fill="none" stroke="#fff" stroke-width=".83" d="M91.17 20.02H76.52l-.1.25-1.3 3.04-.25.58H89.5c.9 0 1.51.92 1.15 1.76l-.73 1.73h-21l3.01-7.07a6.31 6.31 0 0 1 5.79-3.84h12.37l.1-.25 1.27-2.99.25-.57H75.18l1.46-3.44h16.55c2.1 0 3.52 2.16 2.7 4.1l-2.09 4.9a2.93 2.93 0 0 1-2.63 1.8Z"/>
    <path fill="#1e202f" d="M7.96 11.32c-1.02 0-1.93.6-2.34 1.52L3.98 16.7c-.36.83.26 1.75 1.17 1.75h5.36c.25 0 .48-.15.58-.38l.54-1.24H5.98L7.5 13.3l-.82-.38h6.21c.26 0 .49-.15.58-.38l.53-1.22H7.96Zm13.83 5.59a2.54 2.54 0 0 1-2.33 1.53h-5.67c-.91 0-1.53-.92-1.17-1.76l1.65-3.83a2.54 2.54 0 0 1 2.33-1.53h5.67c.9 0 1.52.92 1.16 1.76L21.8 16.9l-.01.01Zm-1.85-.47 1.5-3.52h-6.09l.78.38-1.5 3.52h4.72c.26 0 .49-.15.59-.38Zm6.82 12.6h-1.2l2.37-5.52H25.3l.7-1.6h7.28l-.48 1.14c-.11.27-.44.46-.76.46h-2.07l-2.04 4.76c-.2.47-.66.77-1.17.77v-.01Zm23.85-1.97h-2.38l-.87 1.98h-2l3.07-7.13h2l-1.45 3.37 4.74-3.26c.1-.07.23-.1.36-.1h3l-5.31 3.67 2.4 3.45h-2.2l-1.36-1.98Zm-3.83-5.15h-2.06l-3.06 7.13h1.5c.32 0 .66-.21.77-.48l1.8-4.18 1.05-2.47Zm-6 7.13h-2.15l-.88-1.63h-3.79l-.37.86c-.2.47-.66.77-1.16.77H31.2l3.06-7.13h6.8c.92 0 1.53.93 1.17 1.76l-1.32 3.07a1.1 1.1 0 0 1-1.02.68l.87 1.62h.02Zm.66-3.53-1.13-2-5.62.01.78.37-.83 1.94h4.26c.25 0 .48-.15.58-.38l.83-1.94 1.13 2Zm17.01-.64h4.6l-.43 1c-.1.24-.32.4-.58.4h-4.19l-.5 1.15h5.63l-.53 1.23c-.1.24-.33.4-.59.39h-6.3a.63.63 0 0 1-.58-.88l2.35-5.48c.2-.47.66-.77 1.17-.77h6.84l-.52 1.22a.63.63 0 0 1-.59.38h-6.15l.79.38-.42.98Zm-33.4-8.06 2.35-5.5h-1.22c-.51 0-.97.3-1.17.76l-1.98 4.6c-.36.84.26 1.76 1.17 1.76h5.2c1.01 0 1.93-.6 2.33-1.53l2.39-5.6H32.9c-.51 0-.97.3-1.17.78l-1.86 4.34c-.1.24-.33.4-.59.39h-4.23ZM46 18.44h-1.2l2.37-5.52h-2.62l.7-1.6h7.28l-.48 1.13a.86.86 0 0 1-.76.47H49.2l-2.04 4.76c-.2.46-.66.76-1.17.76H46Zm22.16-1.62.87 1.62h-2.14L66 16.82h-3.8l-.36.86c-.2.46-.66.76-1.17.76h-1.22l3.06-7.12h6.81c.91 0 1.53.92 1.17 1.76l-1.32 3.07c-.17.4-.58.67-1.02.67h.01Zm.4-3.9 1.14 2-1.14-2-.82 1.93a.64.64 0 0 1-.59.38H62.9l.83-1.93-.78-.38h5.61Zm-9.58 1.36h-4.61l.42-.98-.8-.38h6.18c.25 0 .48-.15.58-.38l.52-1.22h-6.85c-.51 0-.97.3-1.17.76l-2.36 5.48c-.18.42.13.88.59.88h6.3c.26 0 .5-.15.6-.38l.52-1.24h-5.63l.5-1.16h4.2c.25 0 .48-.15.58-.38l.43-1Zm-24.16 3.4c-.2.46-.66.76-1.17.76h-1.22l3.06-7.12h1.53c.24 0 .45.13.56.33l2.45 4.6 1.8-4.17c.2-.46.65-.76 1.16-.76h1.24l-2.9 6.74a.64.64 0 0 1-.59.38h-1.3a.64.64 0 0 1-.56-.33l-2.35-4.41-1.71 3.98ZM20.6 27.43l.49-1.14H16.8c-.91 0-1.53-.93-1.17-1.76l.19-.44.26-.63a2.54 2.54 0 0 1 2.34-1.54h6.53l-.52 1.22a.64.64 0 0 1-.59.38H17.1l.8.39-.32.73h4.28c.91 0 1.53.93 1.17 1.76l-.48 1.12a2.54 2.54 0 0 1-2.34 1.53H13.7l.54-1.24c.1-.23.33-.38.59-.38h5.78-.01Z"/>
    <path fill="#231f20" d="M67.24 46.01a.05.05 0 0 1-.05-.04V45c0-.17-.11-.3-.26-.3a.26.26 0 0 0-.22.12l-.51.75a.05.05 0 0 1-.05.02H51.3a.1.1 0 0 1-.1-.1l-.04-.4v-.02c0-.05.05-.1.1-.1a.1.1 0 0 1 .03.01l.76.07c.07 0 .13-.04.14-.1l.56-2.24v-.03a.1.1 0 0 0-.07-.1l-.52-.19a.1.1 0 0 1-.06-.07c-.09-.39-.85-3-4.52-3.58-1.7-.31-3.42.5-4.26 2.01l-.22.48c-.02.04-.1.5-.1.53l.1 2.24c0 .08.04.15.1.2l.8.34-.44.74a.12.12 0 0 1-.12.09l-1.41.04c-.88.04-2.83 1.1-4.26 4.17l-1.65 3.52a.17.17 0 0 1-.15.09h-1.31c-.08 0-.17.07-.2.14l-2.04 5.77a.25.25 0 0 0 .04.25l1.42.88c.04.04.06.09.05.14l-.75 2.19c0 .05-.03.1-.05.14l-.98.87a.24.24 0 0 0-.09.13l-1.35 3.47a.14.14 0 0 1-.14.1l-.76.01c-.2 0-.35.15-.37.34l-.45 5.2-.04.26-.36 2.06a.3.3 0 0 1-.08.13l-1.26.97a10.7 10.7 0 0 0-1.74 2.27l-4.22 8.9c-.1.19-.18.51-.18.73l.3.53c0 .2-.07 1.04-.16 1.2l-1.41 2.48a.22.22 0 0 0-.01.2l.07.15.21.42 4.3.01c.26.02.55-.32.56-.68l.23-2.94-.06-.44 8.18-9.6c.22-.27.5-.72.65-1.03l3.9-8.6c.05-.1.13-.16.23-.2l.25-.07c.15-.05.31 0 .41.12.34.4 1.14 1.77 1.54 2.34.32.47 1.92 2.79 2.62 3.55.2.21.8.45 1.06.61.09.06.12.17.07.26l-2.34 4.1-1.03 4.85c-.04.1-.07.22-.08.34l-.94 3.37c0 .42-.32.64-.34 1.15l-.34 2.45c0 .08.05.14.13.14l5.77.04.82-.04a9.03 9.03 0 0 0 1.7-.34c.25-.08.41-.18.51-.29.2-.2.43-.46.46-.78v-.18a.53.53 0 0 0-.06-.19l-.01-.02a.22.22 0 0 0-.07-.06.23.23 0 0 0-.05-.03l-2.68-.8a.84.84 0 0 1-.43-.31l-.72-1.06a.2.2 0 0 1 .04-.22l1.4-1.39c.05-.04.09-.1.11-.16l4.32-10.18a4.6 4.6 0 0 0 0-2.14c-.1-.57-1.55-3.01-1.93-3.69l-2.92-5.1a.75.75 0 0 0-.22-.25.99.99 0 0 1-.19-.17.54.54 0 0 1-.11-.21l-.17-2.54c0-.05.03-.1.08-.11l.76-.06c.07 0 .13-.05.16-.11l2.6-4.89a.22.22 0 0 0 0-.21l-.53-.66a.2.2 0 0 1 0-.2l.8-.86c.03-.06.1-.08.16-.05l2.12 1.2c.13.07.27.11.42.11a4.9 4.9 0 0 0 2.06-.66 1 1 0 0 0 .32-.33l1.04-2.43c0-.03.05-.03.06 0l.3 1.35c.01.09.09.14.17.12l3.06-.68c.08-.02.13-.1.11-.18l-.72-3.05c0-.04 0-.08.02-.12l.3-.46a.63.63 0 0 0 .08-.19l.36-1.64a.1.1 0 0 1 .1-.08l8.46.02h.01a.2.2 0 0 0 .2-.2v-1.45c0-.03.03-.05.05-.05h3.27a.1.1 0 0 0 .1-.1v-.66a.1.1 0 0 0-.1-.1h-3.27.01Z"/>
</svg>
