<svg xmlns="http://www.w3.org/2000/svg" viewBox="0 0 64 64">
    <path d="M1 40.31v-18.6l.63-3.12.4-.02-.69 4.15 1.2-4.31h8.91c6.72 1.78 6.63 4.9 6.46 12.43l2.74-12.37h15.28l3.04 9.46 2.66-9.45 20.78-.01c.07 2.3-.37 3.22.59 3.86L54.65 40.3h-.06l.01.1-.02.05h.04q.01.03.04.04c2.1.03 4.63.02 6.74.04l.7-.04v.63l-.57.07c-.04 0-.09.06-.1.1q-.02.24-.03.49c-.51-.24-1.66-.77-1.72-.77-.04.02-.98 1.02-1.44 1.5l-.17.08-.07-.07q.1-.1.24-.18c.04-.02.08-.1.09-.15-.34.05-.69.03-1.03.03l-.11-.14c-.11.01-.18.14-.15.24q.07.2.1.4t.01.43q-.11-.02-.2.03l.01.1c.09.02.12 0 .19-.02v.4l-.9 1.02-.03.07c.05.15.06.25.1.4q-.05 0-.11-.02c-.1-.05-.22-.12-.24-.23q0-.05.04-.08l-.15-.23h-.25l-.05.4-.34.3c-.08-.05-.18-.03-.26-.03q.03.1-.07.14l.04.08-.77.03-.04.08h-.14l-.08-.11h-.15c-.06-.13-.17-.26-.21-.4-.03-.06-.24-.1-.29-.02a.3.3 0 0 0-.02.25q0 .06-.05.1l-.48-.02a1 1 0 0 1-.25-.19c-.08-.1-.1-.55-.1-.68l-.19-.04-.04.89h-.92l-.04-.37q.13 0 .24-.03c.04-.02.09-.1.09-.14l-.81-1.9c-.28.08-.92.04-1.27.03l-1.03-3.7 6.79-15.33h-7.83l-.11-3.48-5.4 14.99v6.86c-.07.04-.23.09-.28.15l-.05.73c0 .04-.04 0-.04-.03-.01-.2 0-.29-.1-.48q-.1-.03-.17-.13.08-.05.1-.13l.26-.04v-.11l-.25-.07c-.08-.13-.16-.26-.08-.4l-.6-.34q0-.18.08-.35v-.08l-.07-.09v-.14l-.24-.12h-.26l-.04.02-.1.1h-.27c.14.25.26.47.02.7h-.18c-.14.23-.13.32-.16.58 0 .04-.03-.05-.03-.09l-.04-.27c-.1.2-.24.39-.32.6-.02.07 0 .33 0 .41l-.09.15q-.03.16-.03.31l.11.08v.35q.01.04.06.07.04.06 0 .05l-.13-.06-.39.35c-.03.02-.05.1-.05.13l.07.11q-.06.03-.08.09v.22c.01.03.13.15.15.17h-.33q-.02-.14-.12-.22h-.3q-.03 0-.04.02-.03.08-.08.14-.1.08-.2.06l-.04-.19q.68-1.4 1.32-2.83l.27-.62.04-.28-.7-.11-.11.18h-.26v.34h.26l.03-.12.14.01c0 .06-1.27 2.67-1.27 2.67l-1.57-2.67h1.43q.06 0 .09-.06c.02-.2 0-.35-.2-.39-.14-.02-.63 0-.76.04l-.19-.15-.7-.03v-5.1L30.3 21.89l2.62 15.4c.4.83.67 1.93.84 3.03h-.05l-.02.19-.63-.04v-.15h-.29v.1c-.01.1-.14.16-.23.2l-.03.46c0 .05 0 .11-.02.06q-.04-.07-.13-.1l.03-.09-.15-.14h-.1l-.03.09q.07.14.21.2.01.1.1.16l.03.02h.07q.03 0 .04-.02l.05-.04c.1.15.14.15.12.34q-.02.07-.04.15-.08.8-.15 1.6l-.42-.35-.04-.01H32q0 0-.03.02l-.06.12a.6.6 0 0 1-.3-.11l-.08.11h-.5c-.05 0-.2.28-.23.34q.02.1.1.15l-.07.22c.06.08.04.4.04.51l-.4.2.04.18.06-.09.04.06v.16h-1.03v-.25c.08-.07.18-.25.25-.3l-.14-.03v-.57c0-.1.1-.13.18-.17l.04-.14h-.11v-.08l.1-.04.04-.14c-.09-.09-.17-.08-.3-.08l-.14-.15c-.05.23-.07.44-.15.67q.09.02.11.11-.05.03-.07.1-.04.53-.06 1.07h-1.57l-.03-.54q.12.05.27.02c-.05-.09-.07-.14-.18-.16l-.1-.09c0-.02.05-.03.06-.05.1-.02.23-.08.3-.15.05-.06.05-.17.05-.24q-.02-.03-.05-.07l-.35.18-.3-1.5v-.29c-.02-.15-.1-.3-.14-.44-.04-.21.05-.26-.13-.45l.07-.03.13.09-.04.07c.02.01.1.05.13.03.08-.04.16-.03.24-.07 0-.27.01-.54-.11-.79-.08-.18-.02-.28-.1-.48q0-.02.03-.04l.18-.35q.2-.05.37-.15.1-.24.14-.5.04-.34.05-.7c.01-.2.08-.4.1-.59.01-.07-.03-.31-.03-.4.02-.32.1-.64.1-.97.01-.42.14-.83.04-1.25a8 8 0 0 0-.61-1.33c-.04-.08-.17-.17-.22-.26-.12-.23-.11-.39-.35-.54-.02-.14 0-.18-.12-.28q-.1-.05-.21-.04l-.18.17-.52-.1-.15.1c-.09 0-.31.02-.39 0l-.03-.02c-.08-.05-.1-.17-.13-.25q-.03-.05-.08-.05l.07-.11q0-.07-.05-.09l-.31-.1q-.06-.18-.23-.26.17-.15.09-.32c-.07-.15-.22-.28-.33-.4q-.21-.27-.5-.47-.21 0-.42-.07l-.15.01-.26.16c-.14.16-.29.23-.44.37a1 1 0 0 0-.2.31c.14.16.1.41.1.61.01.02.08.15.08.18v.43c-.24.15-.49.37-.56.65-.36 1.45-.63 3-.95 4.47-.02.1-.13.15-.02.26q.04.05.1.05l.05-.02s.1.17.13.19c.06.62.17 1.34.18 1.96l.04.11q-.06.4-.08.83c.12 0 .19.03.26-.08l.07.05q-.11.07-.19.16-.12.19-.2.39l.66.48v1.44l.1.04v.15h-.07V44l.33.11c.03.01-.02.06-.03.1q-.16.09-.25.25a1 1 0 0 0-.05.34h-.07c.02-.44-.06-.97-.08-1.43-.12-.16-.3-.13-.48-.08v-.14l-.48.04-.07.1c-.3 0-.6.04-.87-.04-.25-.07-.72-.32-.98-.43-.02-.15-.01-.3-.11-.4-.15.01-.16.12-.14.25q-.08-.06-.17-.08h-.32l-.04.12-1.12.5a.4.4 0 0 1-.2 0v-.1a.3.3 0 0 0-.17-.03l-.17.08v.25h-.55l-.34.33v.18l.08.04v.1c-.29.03-.42-.09-.67-.2l-.04-.13c.16.02.29.01.4-.12l.01-.04c.03-.1.02-.35-.09-.38q-.16-.02-.31 0l-.15-2.26-.1-.03q-.1-.05-.09.05l-.07 2.18-.07.42s-.1-.2-.2-.22q-.27.1-.56.15-.35.02-.69 0l-.18-.33h-.42q-.07-.39-.18-.76c-.04-.12-.1-.3-.2-.37-.14-.1-.34-.24-.51-.31-.05-.02-.54.02-.6.01l-.4-3.63c1.6.05 1.56.16 1.34-1.75l-.83-7.75c-.04-.51-.04-.67-.56-.87l-1.08-.42c-.07-1.82-.98-1.83-.94-.42l-1.52-.55-.64.27L7.9 37.53l.31.6 1.9-.05.6 6.73H9.59v-.65h.07V44c-.11-.16-.25-.24-.33-.44h-.15v.08h-.11l-.07.1-.13.04-.1.14V44l-.08.04c0 .03.05.11.08.05.01.08.01.2-.03.26l-.05.05q.08.11.09.27.12-.01.16-.13l.02.07v.2h-.3v-.07h-.57q-.03 0-.08.06h-.05l-.04-.06h-.1v-.11l-.09.05-.03.06h-.35l-.28.06h-.58a.4.4 0 0 0 .18-.11c0-.16-.03-.26.05-.4-.04-.02-.1-.1-.1-.14h-.35l-.03.07q-.09-.04-.09-.13a.6.6 0 0 1 .2-.28q.09.02.15-.05.04-.07.02-.13.1-.07.15-.17l.07-.26v-.09q-.07-.1-.18-.13c-.05 0-.1-.02-.06-.04l.1-.02v-.3c0-.08-.14-.1-.19-.1v-.07h.11v-.23c-.08.03-.13-.03-.17-.09a1 1 0 0 1-.1-.32q-.07-.03-.1-.1h-.08q0 .05-.06.08 0-.15-.04-.29c-.02-.04-.14-.11-.19-.13-.02-.1-.02-.21-.15-.22l-.03-.1-.12-.05c-.02-.1-.05-.13-.11-.21l-.44.4-.01.2c0 .02-.09.15-.11.17h-.05c-.1.08-.09.18-.09.3h.08v.07h-.08v.22q.19.09.15.3h-.18l-.37.48.07.44.15.08-.04.29c-.08 0-.31 0-.39-.05-.14-.08-.35-.25-.5-.36q-.25.1-.48.23l-.09-.02c-.03-.01.05-.05.06-.08q.12-.53.22-1.07c.08-.34.2-.74.3-1.07q.05-.21.03-.43-.05.03-.09.07c-.13.2-.28.42-.36.65-.22.65-.34 1.38-.51 2.05q-.32.1-.66.15c-.06-.13-.1-.25-.03-.38-.07-.03-.17-.05-.2-.11l-.7-1.56v-1.46zm5.42 4.5"/>
</svg>
