<svg xmlns="http://www.w3.org/2000/svg" viewBox="0 0 391 391">
    <path fill="#ff8637" d="M25.85 390.5h85.1c1.9 0 7.4-18.3 16.7-54.9 32.3-112.4 50.9-178.1 55.7-197.2l-54.9-54.1h-1.6c-7.4 23.1-41.6 124.9-102.6 305.4l1.6.8Zm163.8-275.2h.8c1.1-4.5 1.6-7.2 1.6-8v-1.6c-15.9-16.7-33.7-34.5-53.3-53.3-2.1 3.2-3.2 5.8-3.2 8v.8c19.9 20.5 37.9 38.5 54.1 54.1Zm103.4 62.1h.8c-10.9-34.5-17.5-52.2-19.9-53.3L154.65 5.6c-1.3 0-4.2 8.5-8.7 25.4l147.1 146.4Zm-22.3-65.3h.8c-24.4-74-37.4-111.3-39-112.1h-73.2v.8c27.1 27.6 64.2 64.7 111.4 111.3Zm43.8 128.1h.8c-2.7-13-9-23.1-19.1-30.2-31-31.8-62-62.8-93-93h-.8c1.9 10.9 6.1 19.1 12.7 24.7l99.4 98.5Zm50.1 150.3 1.6-.8c-22.8-67.9-35-102.9-36.6-105l-109.8-108.9v.8c4.2 16.7 24.7 88 61.2 213.9h83.6Z"/>
</svg>
