<svg xmlns="http://www.w3.org/2000/svg" viewBox="0 0 391 391" version="1.1">
    <path fill="#ff8637" d="M25.85,390.5l85.1,0c1.9,0 7.4,-18.3 16.7,-54.9c32.3,-112.4 50.9,-178.1 55.7,-197.2l-54.9,-54.1l-1.6,0c-7.4,23.1 -41.6,124.9 -102.6,305.4l1.6,0.8Zm163.8,-275.2l0.8,0c1.1,-4.5 1.6,-7.2 1.6,-8l0,-1.6c-15.9,-16.7 -33.7,-34.5 -53.3,-53.3c-2.1,3.2 -3.2,5.8 -3.2,8l0,0.8c19.9,20.5 37.9,38.5 54.1,54.1Zm103.4,62.1l0.8,0c-10.9,-34.5 -17.5,-52.2 -19.9,-53.3l-119.3,-118.5c-1.3,0 -4.2,8.5 -8.7,25.4l147.1,146.4Zm-22.3,-65.3l0.8,0c-24.4,-74 -37.4,-111.3 -39,-112.1l-73.2,0l0,0.8c27.1,27.6 64.2,64.7 111.4,111.3Zm43.8,128.1l0.8,0c-2.7,-13 -9,-23.1 -19.1,-30.2c-31,-31.8 -62,-62.8 -93,-93l-0.8,0c1.9,10.9 6.1,19.1 12.7,24.7l99.4,98.5Zm50.1,150.3l1.6,-0.8c-22.8,-67.9 -35,-102.9 -36.6,-105l-109.8,-108.9l0,0.8c4.2,16.7 24.7,88 61.2,213.9l83.6,0Z"/>
</svg>
