<svg xmlns="http://www.w3.org/2000/svg" viewBox="0 0 250 250" version="1.1">
    <rect fill="#1194f0" x="0" y="0" width="250" height="250"/>
    <path fill="#fff" d="M118.342,26.311c-21.058,0.232 -41.653,13.422 -50.123,32.86c-7.891,15.968 -7.428,36.1 -5.623,51.605c1.805,15.504 5.461,28 15.851,37.488c10.738,11.339 26.705,16.43 41.978,16.893c12.728,-1.157 28.232,-4.628 33.786,-17.587c-0.694,9.95 2.314,20.595 -1.62,30.083c-9.257,16.893 -34.249,21.521 -49.29,10.413c-6.711,-4.628 -8.331,-12.959 -9.719,-20.132l-32.537,0c-1.481,23.141 14.44,44.731 35.776,52.368c24.298,8.793 53.687,6.016 74.283,-10.183c12.496,-9.788 19.901,-25.524 19.669,-41.26l0,-138.383c-11.801,-0.231 -23.603,0 -35.405,0c0,5.554 0,11.339 0.231,16.893c-5.785,-12.496 -19.438,-20.596 -33.091,-21.058l-4.166,0l0,0Zm8.794,31.009c10.182,0 20.364,5.785 24.298,15.505c5.554,14.347 6.479,30.777 1.157,45.356c-4.628,9.719 -13.885,18.975 -25.455,17.818c-14.81,1.157 -25.455,-13.19 -28.001,-26.38c-2.082,-12.265 -1.851,-25.687 3.471,-37.257c4.397,-9.951 14.116,-14.811 24.53,-15.042Z"/>
</svg>
