<svg xmlns="http://www.w3.org/2000/svg" viewBox="0 0 250 250">
    <path fill="#1194f0" d="M0 0h250v250H0z"/>
    <path fill="#fff" d="M118.34 26.31c-21.06.23-41.65 13.42-50.12 32.86-7.9 15.97-7.43 36.1-5.62 51.6 1.8 15.51 5.46 28 15.85 37.5 10.73 11.33 26.7 16.42 41.98 16.89 12.72-1.16 28.23-4.63 33.78-17.59-.7 9.95 2.32 20.6-1.62 30.08-9.26 16.9-34.25 21.52-49.29 10.42-6.71-4.63-8.33-12.96-9.72-20.14H61.05c-1.49 23.15 14.44 44.74 35.77 52.37 24.3 8.8 53.69 6.02 74.28-10.18a52.2 52.2 0 0 0 19.67-41.26V30.48c-11.8-.23-23.6 0-35.4 0 0 5.55 0 11.34.23 16.89-5.79-12.5-19.44-20.6-33.1-21.06h-4.16Zm8.8 31.01c10.18 0 20.36 5.79 24.3 15.5 5.55 14.35 6.47 30.78 1.15 45.36-4.63 9.72-13.88 18.98-25.45 17.82-14.81 1.16-25.46-13.2-28-26.38-2.09-12.27-1.86-25.69 3.47-37.26 4.4-9.95 14.11-14.8 24.53-15.04Z"/>
</svg>
