<svg xmlns="http://www.w3.org/2000/svg" viewBox="0 0 48 48">
    <path fill="#5d4037" d="M25.418 18.386 9.107 13.421l1.418 18.44 14.893 7.801 12.057-8.51 1.418-18.44-13.475 5.674Z"/>
    <path fill="#8d6e63" d="m9.107 13.421 1.418 18.44 14.893 7.801V18.386L9.107 13.421Z"/>
    <path fill="#43a047" d="M26.837 22.753v-2.949l1.418-.619v2.038l1.419-.71v2.837l2.127-.87v-4.803l1.419-.602v3.439l1.418-.584v-1.544l1.419-.71V15.88l1.418-.597v1.685l1.135-.568.283-3.688-13.475 5.674v4.964l1.419-.597Z"/>
    <path fill="#b2ff59" d="M9.107 13.421 23.29 9.166l15.602 3.546-13.475 5.674-16.311-4.965Z"/>
    <path fill="#66bb6a" d="m9.107 13.421.283 3.642 1.135.335v-.847l1.418.417v2.281l2.128.648v-3.374l1.418.445v3.36l1.419.432v-2.056l1.418.432v2.056l1.419.432v-.842l1.418.44v-1.117l1.419.409v1.973l2.836.863v-4.964L9.107 13.421Z"/>
    <path fill="#a9a09d" d="M41.454 21.811h4.078l.291.914H44.64l.008.03c.048.202.104.406.16.612.055.21.118.419.177.636.065.213.128.435.197.652.068.223.137.441.202.664.042.135.08.269.122.406.043.135.085.276.13.413l.128.423c.042.14.08.282.122.423h-1.848l-1.162-4.259h-1.187l-.235-.914ZM40.796 21.815l.226.914h-2.4l.218 1.038h2.434l.252 1.025h-2.473l.456 2.192-1.845.005-.943-5.168 4.075-.006ZM36.063 21.82l.891 5.17H35.11l-.24-1.667h-.69l.225 1.666H32.56l-.567-5.165 4.07-.003Zm-1.598.816.072.603-.632-.006-.08-.593h-.782l.081.654h.718l.033.238h-.358l.132 1.014h.432l-.035-.343.641-.004.056.347h.44l-.155-1.005h-.357l-.03-.243.734-.004-.102-.658h-.808ZM31.337 21.824l.193 1.913h-.606l.056.577h.606l.269 2.675h-1.841l-.167-2.18-.682-.017.14 2.197h-1.84l-.193-5.16 4.065-.005Zm-2.3.914.067 1.064h.674l-.08-1.064h-.661ZM26.618 21.828l.026.914h-2.359l-.055 3.187h2.504l.03 1.064h-4.382l.174-5.16 4.062-.005ZM21.903 21.834l-.039.914h-2.387l-.076 1.054 2.417.004-.043.996-2.465.003-.082 1.116 2.495.008-.046 1.064h-4.375l.543-5.156 4.058-.003ZM17.195 21.837l-.597 5.156H14.76l.231-1.64-.608-.018.154-1.064-.665-.013-.436 2.739H11.6l.96-5.156h1.7l-.148.953.584.017-.141.995.658.01.278-1.975 1.704-.004ZM11.908 21.854l-1.013 5.155H9.062l1.146-5.151 1.7-.004ZM7.862 21.845h1.7l-1.2 5.152H6.53l.55-2.186h-.662l-.285 1.062H4.945l.294-1.062h-.665l-.65 2.186h-1.8L3.78 21.85h1.666l-.274.935.582.022-.291 1.012h1.29l.269-1h.59l.251-.974Z"/>
    <path d="m45.764 21.5-4.53.004-.14.222-.056-.219h-4.556l-.111.252-.043-.252-4.596.006-.081.298-.03-.298-4.64.004-.043.49-.013-.49-4.668.009-.016.449-.048-.45-4.626.005-.03.29-.081-.29h-2.23l-.18 1.242-.102-.256-.046-.004-.39-.982-2.204.003-.042.24-.115-.24H9.968l-.055.223-.128-.223-2.162.006-.252.97h-.586l-.11.422-1.02-1.392-2.103.004-1.798 5.581 1.91 1.769h2.083l.33-1.242.162.18h.556l.927 1.062H9.86l.043-.2.15.2h2.158l.037-.217.137.217h2.178l.167-1.166.56 1.166h2.204l.026-.269.093.269h4.588l.016-.423.052.423h4.626l.042-.465.019.465h2.267l.072-.324.023.324h2.24l.095-.282.026.282h2.218l.114-.247.034.247h2.197l.131-.226.04.226h2.177l1.261-1.793-.06-.287h.696l.992-1.37.845 3.446h2.136l1.785-1.778-.034-.135-.137-.47-.128-.43s-.406-1.32-.458-1.497c-.063-.213-.131-.432-.19-.641l-.01-.034.897-1.08-.422-1.324Zm-4.31.311h4.078l.291.914H44.64l.008.03c.048.202.104.406.16.612.055.21.118.419.177.636.065.213.128.435.197.652.068.223.137.441.202.664.042.135.08.269.122.406.043.135.085.276.13.413l.128.423c.042.14.08.282.122.423h-1.848l-1.162-4.259h-1.187l-.235-.914Zm-.658.004.226.914h-2.4l.218 1.038h2.434l.252 1.025h-2.473l.456 2.192-1.845.005-.943-5.168 4.075-.006Zm-4.733.006.891 5.168H35.11l-.24-1.666h-.69l.225 1.666H32.56l-.567-5.165 4.07-.003Zm-4.726.003.193 1.913h-.606l.056.577h.606l.269 2.675h-1.841l-.167-2.18-.682-.017.14 2.197h-1.84l-.193-5.16 4.065-.005Zm-4.72.004.027.914h-2.359l-.055 3.187h2.504l.03 1.064h-4.382l.174-5.16 4.062-.005Zm-4.714.006-.039.914h-2.387l-.076 1.054 2.417.004-.043.996-2.465.003-.082 1.116 2.495.008-.046 1.064h-4.375l.543-5.156 4.058-.003Zm-4.708.003-.597 5.156H14.76l.231-1.64-.608-.018.154-1.064-.665-.013-.436 2.739H11.6l.96-5.156h1.7l-.148.953.584.017-.141.995.658.01.278-1.975 1.704-.004Zm-9.333.008h1.7l-1.2 5.152H6.53l.55-2.186h-.662l-.285 1.062H4.945l.294-1.062h-.665l-.65 2.186h-1.8L3.78 21.85h1.666l-.274.935.582.022-.291 1.012h1.29l.269-1h.59l.251-.974Zm4.046.009-1.013 5.155H9.062l1.146-5.151 1.7-.004Zm22.557.782.072.603-.632-.006-.08-.593h-.782l.081.654h.718l.033.238h-.358l.132 1.014h.432l-.035-.343.641-.004.056.347h.44l-.155-1.005h-.357l-.03-.243.734-.004-.102-.658h-.808Zm-5.428.102.067 1.064h.674l-.08-1.064h-.661Zm-2.217 1.863.033 1.016-2.254-.003.02-.76h2.182l.019-.253Z"/>
</svg>
