<svg xmlns="http://www.w3.org/2000/svg" viewBox="0 0 1000 1000" version="1.1">
    <rect fill="#c5412b" x="0" y="0" width="1000" height="1000"/>
    <g fill="#000">
        <path d="M145.274,615.09l-1.005,-203.94c0,0 108.832,38.768 183.186,40.05l1.204,130.705c0,0 -87.514,-0.03 -181.023,34.733"/>
        <path d="M365.823,450.001l59.941,-1.199l1.199,133.103l-58.743,0l-2.397,-131.904Z"/>
        <path d="M522.871,475.774l-38.704,41.296l41.197,41.774l38.138,-43.224l-40.631,-39.846Z"/>
        <path d="M464.124,352.198l128.745,-0.599l1.198,62.277l-128.147,0l-1.796,-61.678Z"/>
        <path d="M631.792,534.837l-91.619,91.02l44.912,43.714l86.229,-87.666l-39.522,-47.068Z"/>
        <path d="M426.891,127.388l203.94,-1.004c0,0 -40.564,114.221 -41.846,188.575l-124.118,0.605c0,0 -4.761,-92.304 -39.524,-185.813"/>
        <path d="M864.012,711.656l-143.107,145.303c0,0 -52.377,-109.309 -104.191,-162.653l87.099,-88.427c0,0 68.802,61.718 159.615,103.013"/>
    </g>
</svg>
