<svg xmlns="http://www.w3.org/2000/svg" viewBox="0 0 1000 1000">
    <path fill="#c5412b" d="M0 0h1000v1000H0z"/>
    <path d="m145.27 615.09-1-203.94s108.83 38.77 183.19 40.05l1.2 130.7s-87.51-.02-181.02 34.74M365.82 450l59.94-1.2 1.2 133.1h-58.74l-2.4-131.9ZM522.87 475.77l-38.7 41.3 41.2 41.77 38.13-43.22-40.63-39.85ZM464.12 352.2l128.75-.6 1.2 62.28H465.92l-1.8-61.68ZM631.8 534.84l-91.63 91.02 44.92 43.71 86.22-87.67-39.52-47.06ZM426.9 127.39l203.93-1s-40.56 114.22-41.85 188.57l-124.11.6s-4.76-92.3-39.53-185.8M864.01 711.66l-143.1 145.3S668.52 747.65 616.7 694.3l87.1-88.43s68.8 61.72 159.62 103.01"/>
</svg>
