<svg xmlns="http://www.w3.org/2000/svg" viewBox="0 0 400 400" version="1.1">
    <path filter="url(#blur)" d="M244.373,36.007c77.277,19.735,134.419,89.813,134.419,173.24c0,1.903-0.04,3.798-0.1,5.688
		l-120.257-17.107c-3.521-18.121-15.256-33.295-31.178-41.512L244.373,36.007z M147.07,181.986
		c8.216-15.92,23.391-27.655,41.511-31.176l17.106-120.258c-1.891-0.059-3.783-0.099-5.688-0.099
		c-83.425,0-153.502,57.14-173.238,134.418L147.07,181.986z M172.739,262.176c-15.919-8.217-27.655-23.392-31.175-41.512
		L21.307,203.559c-0.059,1.891-0.099,3.784-0.099,5.688c0,83.424,57.14,153.502,134.417,173.237L172.739,262.176z M252.93,236.506
		c-8.217,15.92-23.392,27.655-41.512,31.178l-17.107,120.256c1.89,0.062,3.785,0.102,5.689,0.102
		c83.425,0,153.503-57.145,173.238-134.42L252.93,236.506z"/>

    <path fill="url(#color)" d="M245.314,26.641c77.276,19.735,134.42,89.813,134.42,173.24c0,1.904-0.04,3.799-0.102,5.688
		l-120.256-17.105c-3.521-18.121-15.257-33.295-31.177-41.512L245.314,26.641z M148.013,172.62
		c8.216-15.92,23.391-27.655,41.511-31.176l17.107-120.258c-1.89-0.059-3.783-0.099-5.688-0.099
		c-83.425,0-153.502,57.14-173.238,134.418L148.013,172.62z M173.682,252.811c-15.919-8.217-27.655-23.393-31.175-41.512
		L22.25,194.192c-0.059,1.89-0.099,3.785-0.099,5.689c0,83.424,57.14,153.501,134.417,173.238L173.682,252.811z M253.872,227.141
		c-8.218,15.92-23.392,27.654-41.513,31.176l-17.106,120.26c1.89,0.059,3.785,0.1,5.688,0.1c83.426,0,153.504-57.143,173.237-134.42
		L253.872,227.141z"/>

    <path fill="url(#shadow)" d="M245.314,26.641c77.276,19.735,134.42,89.813,134.42,173.24c0,1.904-0.04,3.799-0.102,5.688
		l-120.256-17.105c-3.521-18.121-15.257-33.295-31.177-41.512L245.314,26.641z M148.013,172.62
		c8.216-15.92,23.391-27.655,41.511-31.176l17.107-120.258c-1.89-0.059-3.783-0.099-5.688-0.099
		c-83.425,0-153.502,57.14-173.238,134.418L148.013,172.62z M173.682,252.811c-15.919-8.217-27.655-23.393-31.175-41.512
		L22.25,194.192c-0.059,1.89-0.099,3.785-0.099,5.689c0,83.424,57.14,153.501,134.417,173.238L173.682,252.811z M253.872,227.141
		c-8.218,15.92-23.392,27.654-41.513,31.176l-17.106,120.26c1.89,0.059,3.785,0.1,5.688,0.1c83.426,0,153.504-57.143,173.237-134.42
		L253.872,227.141z"/>

    <filter id="blur">
        <feGaussianBlur stdDeviation="3" in="SourceGraphic"/>
    </filter>

    <linearGradient id="color" gradientUnits="userSpaceOnUse" x1="240.5625" y1="765.2695" x2="161.3222" y2="416.4927" gradientTransform="matrix(1 0 0 1 0 -391)">
        <stop offset="0" stop-color="#5d1f0e"/>
        <stop offset="1" stop-color="#d09737"/>
    </linearGradient>

    <radialGradient id="shadow" cx="131.4141" cy="598.875" r="304.6512" fx="127.5269" fy="598.0687" gradientTransform="matrix(0.9774 0.2114 -0.1266 0.5851 0.8709 -343.1854)" gradientUnits="userSpaceOnUse">
        <stop offset="0" stop-color="#fff" stop-opacity="0"/>
        <stop offset="0.4657" stop-color="#fff" stop-opacity="0.08" />
        <stop offset="0.9861" stop-color="#fff" stop-opacity="0.21"/>
        <stop offset="1" stop-color="#fff" stop-opacity="0"/>
    </radialGradient>
</svg>
