<svg xmlns="http://www.w3.org/2000/svg" viewBox="0 0 256 256">
  <defs>
    <radialGradient id="b" cx="0" cy="0" r="1" gradientTransform="matrix(297.765 64.403 -38.5687 178.251 53.5 35)" gradientUnits="userSpaceOnUse">
      <stop offset="0" stop-color="#fff" stop-opacity="0"/>
      <stop offset=".5" stop-color="#fff" stop-opacity=".08"/>
      <stop offset=".99" stop-color="#fff" stop-opacity=".21"/>
      <stop offset="1" stop-color="#fff" stop-opacity="0"/>
    </radialGradient>
    <linearGradient id="a" x1="0" x2="1" y1="0" y2="0" gradientTransform="rotate(-102.8 269.67 91.12) scale(357.67)" gradientUnits="userSpaceOnUse">
      <stop offset="0" stop-color="#5d1f0e"/>
      <stop offset="1" stop-color="#d09737"/>
    </linearGradient>
  </defs>
  <path fill="url(#a)" d="M245.31 26.64c77.28 19.74 134.42 89.81 134.42 173.24 0 1.9-.04 3.8-.1 5.69l-120.25-17.1a59.65 59.65 0 0 0-31.18-41.52l17.11-120.3v-.01Zm-97.3 145.98a59.64 59.64 0 0 1 41.51-31.18L206.63 21.2c-1.89-.06-3.78-.1-5.69-.1-83.42 0-153.5 57.14-173.23 134.42L148 172.62h.01Zm25.67 80.2a59.65 59.65 0 0 1-31.17-41.52L22.25 194.2c-.06 1.88-.1 3.78-.1 5.68 0 83.43 57.14 153.5 134.42 173.24l17.11-120.3Zm80.2-25.68a59.66 59.66 0 0 1-41.52 31.18l-17.1 120.26c1.88.06 3.78.1 5.68.1 83.43 0 153.5-57.15 173.24-134.42l-120.3-17.12Z" transform="matrix(.71592 0 0 .71592 -15.86 -15.1)"/>
  <path fill="url(#b)" d="M245.31 26.64c77.28 19.74 134.42 89.81 134.42 173.24 0 1.9-.04 3.8-.1 5.69l-120.25-17.1a59.65 59.65 0 0 0-31.18-41.52l17.11-120.3v-.01Zm-97.3 145.98a59.64 59.64 0 0 1 41.51-31.18L206.63 21.2c-1.89-.06-3.78-.1-5.69-.1-83.42 0-153.5 57.14-173.23 134.42L148 172.62h.01Zm25.67 80.2a59.65 59.65 0 0 1-31.17-41.52L22.25 194.2c-.06 1.88-.1 3.78-.1 5.68 0 83.43 57.14 153.5 134.42 173.24l17.11-120.3Zm80.2-25.68a59.66 59.66 0 0 1-41.52 31.18l-17.1 120.26c1.88.06 3.78.1 5.68.1 83.43 0 153.5-57.15 173.24-134.42l-120.3-17.12Z" transform="matrix(.71592 0 0 .71592 -15.86 -15.1)"/>
</svg>
