<svg version="1.1" xmlns="http://www.w3.org/2000/svg" viewBox="0 0 1476.6 362.3" xml:space="preserve">
<style type="text/css">
	.st0{fill:#ffffff;}
	.st1{fill:#e2e2e2;}
	.st2{fill:#c6c6c6;}
</style>
<g>
	<path class="st0" d="M513.6,342.3H383.9v-20.9l82.5-110.6h-76.6v-29.5h123.5v20.3l-80.7,111.3h81V342.3z"/>
	<path class="st0" d="M691.6,272.5c0,48.4-22.5,72.5-67.6,72.5c-43.7,0-65.6-23.6-65.6-70.9v-93h36.4v93.4
		c0,26.1,10.2,39.1,30.5,39.1c20,0,30-12.6,30-37.7v-94.8h36.3L691.6,272.5L691.6,272.5z"/>
	<path class="st0" d="M884.7,342.3H843l-25-41.4c-1.9-3.1-3.7-6-5.4-8.4c-1.7-2.5-3.5-4.6-5.2-6.3c-1.8-1.8-3.6-3.1-5.5-4
		s-4-1.4-6.2-1.4h-9.8v61.7h-36.3v-161h57.5c39.1,0,58.6,14.6,58.6,43.8c0,5.6-0.9,10.8-2.6,15.6c-1.7,4.8-4.2,9-7.3,12.9
		c-3.1,3.9-6.9,7.1-11.4,9.9c-4.5,2.8-9.4,4.9-14.9,6.5v0.4c2.4,0.7,4.7,2,7,3.6c2.2,1.7,4.4,3.7,6.5,5.9c2.1,2.2,4.1,4.7,6,7.2
		c1.9,2.6,3.7,5.1,5.2,7.6L884.7,342.3z M785.9,208.4v44.8h15.7c7.8,0,14-2.2,18.8-6.7c4.8-4.6,7.2-10.2,7.2-17
		c0-14.1-8.4-21.1-25.3-21.1H785.9z"/>
	<path class="st0" d="M959,342.3h-36.3v-161H959V342.3z"/>
	<path class="st0" d="M1086.7,345.1c-23.1,0-41.9-7.5-56.4-22.5s-21.8-34.6-21.8-58.7c0-25.5,7.4-46,22.1-61.8
		c14.7-15.7,34.3-23.6,58.6-23.6c23,0,41.6,7.5,55.8,22.6c14.2,15,21.3,34.9,21.3,59.5c0,25.3-7.4,45.7-22.1,61.2
		C1129.5,337.3,1110.3,345.1,1086.7,345.1z M1088.3,209.7c-12.7,0-22.8,4.8-30.3,14.3s-11.2,22.2-11.2,37.9
		c0,15.9,3.7,28.6,11.2,37.8c7.5,9.3,17.3,13.9,29.4,13.9c12.5,0,22.4-4.5,29.8-13.5c7.3-9,11-21.5,11-37.6c0-16.7-3.6-29.7-10.7-39
		C1110.3,214.4,1100.6,209.7,1088.3,209.7z"/>
	<path class="st0" d="M1399.5,342.3h-35.8v-96.4c0-10.4,0.4-21.9,1.3-34.5h-0.9c-1.9,9.9-3.6,17-5.1,21.3l-37.7,109.5h-29.6
		l-38.4-108.4c-1-2.9-2.7-10.4-5.1-22.5h-1c1,15.9,1.5,29.8,1.5,41.8v89.1H1216v-161h53.1l32.9,95.5c2.6,7.6,4.5,15.3,5.7,23h0.7
		c2-8.9,4.2-16.7,6.4-23.2l32.9-95.2h51.8V342.3z"/>
</g>
<polygon class="st0" points="147.2,31.1 209.2,31.1 329.5,341.9 267.8,341.9 "/>
<polygon class="st1" points="178.2,111 147.2,31.1 26.9,341.9 88.5,341.9 "/>
<polygon class="st2" points="88.5,341.9 122.4,254.7 213,200.7 234.2,255.3 "/>
</svg>
