<svg viewBox="0 0 2038 500" version="1.1" xmlns="http://www.w3.org/2000/svg">
    <g fill="#0763e8">
        <path d="M718.051,247.999l-132.349,190.174l130.555,0l0,33.812l-186.723,0l0,-18.355l132.9,-189.07l-122.688,0l0,-34.088l178.305,0l0,17.527Z"/>
		<path d="M975.987,374.413c0,67.9 -32.156,101.712 -96.329,101.712c-61.551,0 -92.327,-32.57 -92.327,-97.847l0,-147.806l40.16,0l0,139.525c0,47.337 18.355,71.074 55.203,71.074c35.468,0 53.271,-22.909 53.271,-68.59l0,-142.009l40.16,0l0,143.941l-0.138,0Z"/>
		<path d="M1253.93,472.123l-46.784,0l-38.642,-64.726c-3.45,-5.934 -6.901,-11.04 -10.213,-15.181c-3.312,-4.278 -6.624,-7.728 -10.074,-10.35c-3.45,-2.76 -7.177,-4.692 -11.179,-5.934c-4.002,-1.243 -8.556,-1.795 -13.663,-1.795l-16.146,0l0,97.986l-39.884,0l0,-241.651l79.492,0c11.316,0 21.805,1.38 31.327,4.002c9.523,2.76 17.803,6.763 24.98,12.145c7.038,5.382 12.558,12.282 16.56,20.425c4.003,8.142 5.935,17.665 5.935,28.567c0,8.557 -1.242,16.423 -3.726,23.462c-2.485,7.176 -6.073,13.524 -10.765,19.045c-4.692,5.52 -10.213,10.35 -16.837,14.214c-6.624,3.865 -13.939,6.901 -22.219,9.109l0,0.69c4.416,2.484 8.142,5.244 11.455,8.142c3.312,3.036 6.348,6.073 9.246,9.247c2.898,3.174 5.796,6.762 8.694,10.764c2.899,4.003 6.073,8.557 9.523,13.939l42.92,67.9Zm-146.701,-209.219l0,78.664l33.397,0c6.211,0 11.869,-0.966 17.113,-2.898c5.244,-1.932 9.799,-4.693 13.525,-8.281c3.864,-3.588 6.762,-8.004 8.97,-13.111c2.07,-5.106 3.175,-10.902 3.175,-17.388c0,-11.593 -3.589,-20.563 -10.903,-27.188c-7.314,-6.486 -17.803,-9.798 -31.466,-9.798l-33.811,0Z"/>
		<rect x="1316.45" y="230.472" width="41.264" height="241.651"/>
		<path d="M1551.2,476.125c-34.778,0 -62.656,-11.317 -83.633,-33.812c-20.977,-22.633 -31.465,-51.891 -31.465,-88.049c0,-38.918 10.626,-69.831 32.017,-93.016c21.391,-23.186 50.373,-34.64 86.945,-34.64c33.95,0 61.275,11.178 81.976,33.674c20.701,22.495 31.052,51.89 31.052,88.048c0,39.47 -10.627,70.522 -31.88,93.431c-21.253,22.909 -49.406,34.364 -85.012,34.364Zm1.932,-214.463c-22.081,0 -40.16,8.28 -53.961,24.703c-13.801,16.423 -20.839,38.228 -20.839,65.139c0,26.912 6.762,48.441 20.149,64.864c13.525,16.423 31.052,24.565 52.857,24.565c23.185,0 41.402,-7.866 54.789,-23.461c13.386,-15.595 20.011,-37.4 20.011,-65.554c0,-28.843 -6.487,-51.2 -19.459,-66.933c-12.835,-15.457 -30.776,-23.323 -53.547,-23.323Z"/>
		<path d="M2006.35,472.123l-39.746,0l0,-156.363c0,-12.834 0.828,-28.429 2.346,-47.06l-0.69,0c-2.484,10.627 -4.692,18.079 -6.624,22.771l-72.04,180.652l-27.601,0l-72.316,-179.272c-2.07,-5.244 -4.14,-13.248 -6.348,-24.151l-0.69,0c0.966,9.66 1.38,25.393 1.38,47.336l0,155.949l-37.124,0l0,-241.513l56.445,0l63.483,160.916c4.83,12.421 8.004,21.529 9.385,27.602l0.828,0c4.14,-12.697 7.59,-22.081 10.074,-28.292l64.725,-160.226l54.375,0l0,241.651l0.138,0Z"/>
    </g>
	<path fill="#1a76fc" d="M202.871,43.058l85.564,0l166.023,429.065l-85.013,0l-166.574,-429.065Z"/>
	<path fill="#0763e8" d="M245.791,153.326l-42.782,-110.268l-166.161,429.065l85.15,0l123.793,-318.797Z"/>
	<path fill="#004ce3" d="M121.998,472.123l46.647,-120.343l125.172,-74.524l29.258,75.214l-201.077,119.653Z"/>
</svg>
