<svg version="1.1" xmlns="http://www.w3.org/2000/svg" viewBox="0 0 1476.6 362.3" xml:space="preserve">
<style type="text/css">
	.st0{fill:#0763E8;}
	.st1{fill:#1A76FC;}
	.st2{fill:#004CE3;}
</style>
<g>
	<path class="st0" d="M520.3,179.7l-95.9,137.8H519v24.5H383.7v-13.3L480,191.7h-88.9V167h129.2V179.7z"/>
	<path class="st0" d="M707.2,271.3c0,49.2-23.3,73.7-69.8,73.7c-44.6,0-66.9-23.6-66.9-70.9V167h29.1v101.1
		c0,34.3,13.3,51.5,40,51.5c25.7,0,38.6-16.6,38.6-49.7V167h29.1V271.3z"/>
	<path class="st0" d="M908.6,342.1h-33.9l-28-46.9c-2.5-4.3-5-8-7.4-11c-2.4-3.1-4.8-5.6-7.3-7.5c-2.5-2-5.2-3.4-8.1-4.3
		c-2.9-0.9-6.2-1.3-9.9-1.3h-11.7v71h-28.9V167H831c8.2,0,15.8,1,22.7,2.9c6.9,2,12.9,4.9,18.1,8.8c5.1,3.9,9.1,8.9,12,14.8
		c2.9,5.9,4.3,12.8,4.3,20.7c0,6.2-0.9,11.9-2.7,17c-1.8,5.2-4.4,9.8-7.8,13.8c-3.4,4-7.4,7.5-12.2,10.3c-4.8,2.8-10.1,5-16.1,6.6
		v0.5c3.2,1.8,5.9,3.8,8.3,5.9c2.4,2.2,4.6,4.4,6.7,6.7c2.1,2.3,4.2,4.9,6.3,7.8c2.1,2.9,4.4,6.2,6.9,10.1L908.6,342.1z
		 M802.3,190.6v56.9h24.2c4.5,0,8.6-0.7,12.4-2.1c3.8-1.4,7.1-3.4,9.8-6c2.8-2.6,4.9-5.8,6.5-9.5c1.5-3.7,2.3-7.9,2.3-12.6
		c0-8.4-2.6-14.9-7.9-19.7c-5.3-4.7-12.9-7.1-22.8-7.1H802.3z"/>
	<path class="st0" d="M983.8,342.1h-29.9V167h29.9V342.1z"/>
	<path class="st0" d="M1124,345c-25.2,0-45.4-8.2-60.6-24.5c-15.2-16.4-22.8-37.6-22.8-63.8c0-28.2,7.7-50.6,23.2-67.4
		c15.5-16.8,36.5-25.1,63-25.1c24.6,0,44.4,8.1,59.4,24.4c15,16.3,22.5,37.6,22.5,63.8c0,28.6-7.7,51.1-23.1,67.7
		S1149.8,345,1124,345z M1125.4,189.6c-16,0-29.1,6-39.1,17.9s-15.1,27.7-15.1,47.2c0,19.5,4.9,35.1,14.6,47
		c9.8,11.9,22.5,17.8,38.3,17.8c16.8,0,30-5.7,39.7-17c9.7-11.3,14.5-27.1,14.5-47.5c0-20.9-4.7-37.1-14.1-48.5
		C1154.9,195.3,1141.9,189.6,1125.4,189.6z"/>
	<path class="st0" d="M1453.8,342.1H1425V228.8c0-9.3,0.6-20.6,1.7-34.1h-0.5c-1.8,7.7-3.4,13.1-4.8,16.5l-52.2,130.9h-20
		l-52.4-129.9c-1.5-3.8-3-9.6-4.6-17.5h-0.5c0.7,7,1,18.4,1,34.3v113h-26.9V167h40.9l46,116.6c3.5,9,5.8,15.6,6.8,20h0.6
		c3-9.2,5.5-16,7.3-20.5l46.9-116.1h39.4V342.1z"/>
</g>
<polygon class="st1" points="147,31.2 209,31.2 329.3,342.1 267.7,342.1 "/>
<polygon class="st0" points="178.1,111.1 147.1,31.2 26.7,342.1 88.4,342.1 "/>
<polygon class="st2" points="88.4,342.1 122.2,254.9 212.9,200.9 234.1,255.4 "/>
</svg>
