<svg xmlns="http://www.w3.org/2000/svg" viewBox="0 0 2038 500">
	<path fill="#fff" d="M718.051 247.999 585.702 438.173h130.555v33.812H529.534V453.63l132.9-189.07H539.746v-34.088h178.305v17.527ZM975.987 374.413c0 67.9-32.156 101.712-96.329 101.712-61.551 0-92.327-32.57-92.327-97.847V230.472h40.16v139.525c0 47.337 18.355 71.074 55.203 71.074 35.468 0 53.271-22.909 53.271-68.59V230.472h40.16v143.941h-.138ZM1253.93 472.123h-46.784l-38.642-64.726c-3.45-5.934-6.901-11.04-10.213-15.181-3.312-4.278-6.624-7.728-10.074-10.35a33.673 33.673 0 0 0-11.179-5.934c-4.002-1.243-8.556-1.795-13.663-1.795h-16.146v97.986h-39.884V230.472h79.492c11.316 0 21.805 1.38 31.327 4.002 9.523 2.76 17.803 6.763 24.98 12.145 7.038 5.382 12.558 12.282 16.56 20.425 4.003 8.142 5.935 17.665 5.935 28.567 0 8.557-1.242 16.423-3.726 23.462-2.485 7.176-6.073 13.524-10.765 19.045-4.692 5.52-10.213 10.35-16.837 14.214-6.624 3.865-13.939 6.901-22.219 9.109v.69c4.416 2.484 8.142 5.244 11.455 8.142a146.08 146.08 0 0 1 9.246 9.247c2.898 3.174 5.796 6.762 8.694 10.764a292.99 292.99 0 0 1 9.523 13.939l42.92 67.9Zm-146.701-209.219v78.664h33.397c6.211 0 11.869-.966 17.113-2.898 5.244-1.932 9.799-4.693 13.525-8.281 3.864-3.588 6.762-8.004 8.97-13.111 2.07-5.106 3.175-10.902 3.175-17.388 0-11.593-3.589-20.563-10.903-27.188-7.314-6.486-17.803-9.798-31.466-9.798h-33.811ZM1316.45 230.472h41.264v241.651h-41.264zM1551.2 476.125c-34.778 0-62.656-11.317-83.633-33.812-20.977-22.633-31.465-51.891-31.465-88.049 0-38.918 10.626-69.831 32.017-93.016 21.391-23.186 50.373-34.64 86.945-34.64 33.95 0 61.275 11.178 81.976 33.674 20.701 22.495 31.052 51.89 31.052 88.048 0 39.47-10.627 70.522-31.88 93.431-21.253 22.909-49.406 34.364-85.012 34.364Zm1.932-214.463c-22.081 0-40.16 8.28-53.961 24.703-13.801 16.423-20.839 38.228-20.839 65.139 0 26.912 6.762 48.441 20.149 64.864 13.525 16.423 31.052 24.565 52.857 24.565 23.185 0 41.402-7.866 54.789-23.461 13.386-15.595 20.011-37.4 20.011-65.554 0-28.843-6.487-51.2-19.459-66.933-12.835-15.457-30.776-23.323-53.547-23.323ZM2006.35 472.123h-39.746V315.76c0-12.834.828-28.429 2.346-47.06h-.69c-2.484 10.627-4.692 18.079-6.624 22.771l-72.04 180.652h-27.601l-72.316-179.272c-2.07-5.244-4.14-13.248-6.348-24.151h-.69c.966 9.66 1.38 25.393 1.38 47.336v155.949h-37.124V230.472h56.445l63.483 160.916c4.83 12.421 8.004 21.529 9.385 27.602h.828c4.14-12.697 7.59-22.081 10.074-28.292l64.725-160.226h54.375v241.651h.138Z"/>
	<path fill="#fff" d="M202.871 43.058h85.564l166.023 429.065h-85.013L202.871 43.058Z"/>
	<path fill="#c6c6c6" d="M245.791 153.326 203.009 43.058 36.848 472.123h85.15l123.793-318.797Z"/>
	<path fill="#e2e2e2" d="m121.998 472.123 46.647-120.343 125.172-74.524 29.258 75.214-201.077 119.653Z"/>
</svg>
